<svg version="1.1" xmlns="http://www.w3.org/2000/svg" xmlns:xlink="http://www.w3.org/1999/xlink">
<g id="map">
	<polygon fill="#fa915c" points="103.781,231.322 101.187,268.49 162.807,257.734 136.536,231.322 	"/>
	<path fill="#2888e5" d="M3.669,180.99l41.771,16.697c2.787,1.115,4.615,3.814,4.615,6.816v12.139h40.019l3.111-43.998L6.374,145.57L3.669,180.99z"
		/>
	<path fill="#17ee07" d="M54.774,36.263V91.3c0,1.939-0.768,3.803-2.137,5.178l-36.531,36.73l77.08,24.244L89.67,44.271L54.774,36.263z"/>
	<path fill="#0cb670" d="M107.787,172.644l-2.998,43.998h34.798c1.954,0,3.827,0.777,5.204,2.164l35.51,35.697l15.867-2.545l-5.316-97.025
		L107.787,172.644z"/>
	<path fill="#644169" d="M249.017,101.021l35.21,53.143l7.782,1.4l4.961-99.937c0.2-4.049-2.524-7.662-6.473-8.584l-83.318-19.57l-1.091,60.775
		l38.602,9.709C246.463,98.402,248.007,99.496,249.017,101.021z"/>
	<path fill="#8f3441" d="M35.376,223.982v-14.508L2.497,196.332l-2.473,32.381c-0.283,3.713,1.914,7.168,5.398,8.484l81.135,31.293l2.511-37.168
		H42.716C38.662,231.322,35.376,228.037,35.376,223.982z"/>
	<path fill="#6e6222" d="M296.937,261.48l-4.746-90.969l-87.031-15.578l5.753,97.025l75.705,18.715c0.653,0.158,1.315,0.236,1.974,0.236
		c0.016,0,0.032,0,0.048,0c4.621-0.014,8.361-3.764,8.361-8.389C297,262.169,296.979,261.822,296.937,261.48z"/>
	<polygon fill="#c93a94" points="191.472,84.57 192.501,27.472 158.037,34.037 158.037,64.937 172.904,79.9 	"/>
	<path fill="#fac206" d="M40.095,88.273V32.98l-29.874-6.686c-2.577-0.58-5.275,0.092-7.283,1.809c-2.007,1.715-3.089,4.275-2.92,6.91l5.615,87.908
		L40.095,88.273z"/>
	<path fill="#e0d48b" d="M190.853,140.121l0.349-40.481l-23.857-6.002c-1.294-0.324-2.475-0.998-3.416-1.945L145.49,73.136
		c-1.365-1.375-2.133-3.234-2.133-5.172V36.89l-38.987,7.381l3.417,113.182L190.853,140.121z"/>
	<polygon fill="#8b9bed" points="238.351,111.5 205.817,103.316 205.159,140.121 264.237,150.57 	"/>
</g>
</svg>
